<svg width="13" height="13" viewBox="0 0 13 13" fill="none" xmlns="http://www.w3.org/2000/svg">
<g clip-path="url(#clip0_2121_35)">
<path fill-rule="evenodd" clip-rule="evenodd" d="M0.833252 4.25C0.833252 3.85218 0.991287 3.47064 1.27259 3.18934C1.5539 2.90804 1.93543 2.75 2.33325 2.75H7.95825C8.32207 2.74996 8.67351 2.88214 8.94711 3.12195C9.22072 3.36175 9.39784 3.69282 9.4455 4.0535L11.778 3.017C11.8922 2.96613 12.0172 2.9446 12.1419 2.95436C12.2665 2.96413 12.3867 3.00488 12.4915 3.07292C12.5964 3.14096 12.6825 3.23412 12.7422 3.34394C12.8019 3.45376 12.8332 3.57676 12.8333 3.70175V9.29825C12.8331 9.42314 12.8018 9.54603 12.7422 9.65576C12.6826 9.76549 12.5965 9.85859 12.4917 9.92661C12.387 9.99463 12.2669 10.0354 12.1424 10.0453C12.0179 10.0551 11.8929 10.0337 11.7788 9.983L9.4455 8.9465C9.39784 9.30718 9.22072 9.63825 8.94711 9.87805C8.67351 10.1179 8.32207 10.25 7.95825 10.25H2.33325C1.93543 10.25 1.5539 10.092 1.27259 9.81066C0.991287 9.52936 0.833252 9.14782 0.833252 8.75V4.25Z" fill="currentColor"/>
</g>
<defs>
<clipPath id="clip0_2121_35">
<rect width="12" height="12" fill="white" transform="translate(0.833252 0.5)"/>
</clipPath>
</defs>
</svg>
