<svg width="13" height="13" viewBox="0 0 13 13" fill="none" xmlns="http://www.w3.org/2000/svg">
<g clip-path="url(#clip0_2121_71)">
<path d="M5.33325 9.5C5.33325 10.0002 5.271 10.3752 5.14575 10.625H4.58325C4.4838 10.625 4.38841 10.6645 4.31809 10.7348C4.24776 10.8052 4.20825 10.9005 4.20825 11C4.20825 11.0995 4.24776 11.1948 4.31809 11.2652C4.38841 11.3355 4.4838 11.375 4.58325 11.375H9.08325C9.18271 11.375 9.27809 11.3355 9.34842 11.2652C9.41874 11.1948 9.45825 11.0995 9.45825 11C9.45825 10.9005 9.41874 10.8052 9.34842 10.7348C9.27809 10.6645 9.18271 10.625 9.08325 10.625H8.52075C8.3955 10.3752 8.33325 10.0002 8.33325 9.5H11.3333C12.8333 9.5 12.8333 8 12.8333 8V3.5C12.8333 2 11.3333 2 11.3333 2H2.33325C0.833252 2 0.833252 3.5 0.833252 3.5V8C0.833252 9.5 2.33325 9.5 2.33325 9.5H5.33325Z" fill="currentColor"/>
</g>
<defs>
<clipPath id="clip0_2121_71">
<rect width="12" height="12" fill="white" transform="translate(0.833252 0.5)"/>
</clipPath>
</defs>
</svg>
