<svg width="13" height="13" viewBox="0 0 13 13" fill="none" xmlns="http://www.w3.org/2000/svg">
<g clip-path="url(#clip0_2121_39)">
<path d="M10.4739 0.609429C10.4035 0.539127 10.3082 0.499634 10.2087 0.499634C10.1093 0.499634 10.0139 0.539127 9.9436 0.609429L8.70835 1.84468L11.4886 4.62493L12.7239 3.39043C12.7588 3.35559 12.7865 3.31421 12.8054 3.26865C12.8243 3.2231 12.834 3.17425 12.834 3.12493C12.834 3.0756 12.8243 3.02676 12.8054 2.9812C12.7865 2.93564 12.7588 2.89426 12.7239 2.85943L10.4739 0.609429ZM10.9584 5.15518L8.1781 2.37493L3.3031 7.24993H3.45835C3.55781 7.24993 3.65319 7.28944 3.72352 7.35976C3.79384 7.43009 3.83335 7.52547 3.83335 7.62493V7.99993H4.20835C4.30781 7.99993 4.40319 8.03944 4.47352 8.10976C4.54384 8.18009 4.58335 8.27547 4.58335 8.37493V8.74993H4.95835C5.05781 8.74993 5.15319 8.78944 5.22352 8.85976C5.29384 8.93009 5.33335 9.02547 5.33335 9.12493V9.49993H5.70835C5.80781 9.49993 5.90319 9.53944 5.97352 9.60976C6.04384 9.68009 6.08335 9.77547 6.08335 9.87493V10.0302L10.9584 5.15518ZM5.35735 10.7562C5.34157 10.7142 5.33344 10.6698 5.33335 10.6249V10.2499H4.95835C4.85889 10.2499 4.76351 10.2104 4.69319 10.1401C4.62286 10.0698 4.58335 9.97438 4.58335 9.87493V9.49993H4.20835C4.10889 9.49993 4.01351 9.46042 3.94319 9.39009C3.87286 9.31977 3.83335 9.22438 3.83335 9.12493V8.74993H3.45835C3.35889 8.74993 3.26351 8.71042 3.19319 8.64009C3.12286 8.56977 3.08335 8.47438 3.08335 8.37493V7.99993H2.70835C2.66352 7.99986 2.61906 7.99173 2.5771 7.97593L2.44285 8.10943C2.40711 8.14542 2.37905 8.18828 2.36035 8.23543L0.860351 11.9854C0.833073 12.0536 0.826395 12.1282 0.841146 12.2001C0.855896 12.272 0.891426 12.338 0.943331 12.3899C0.995236 12.4419 1.06123 12.4774 1.13314 12.4921C1.20505 12.5069 1.2797 12.5002 1.34785 12.4729L5.09785 10.9729C5.145 10.9542 5.18786 10.9262 5.22385 10.8904L5.35735 10.7569V10.7562Z" fill="currentColor"/>
</g>
<defs>
<clipPath id="clip0_2121_39">
<rect width="12" height="12" fill="white" transform="translate(0.833252 0.5)"/>
</clipPath>
</defs>
</svg>
